<svg xmlns="http://www.w3.org/2000/svg" style="position: fixed; top: 0; left: 0; width: 100%; height: 100%;">
<rect width="100%" height="100%" fill="#000"></rect>
<g id="cephpod" fill="none" stroke="#F05" stroke-linejoin="round" stroke-linecap="round">  
  <path d="m  455 295 l 0.001 0.001 m 170 0 l 0.001 0.001 m 675 0 l 0.001 0.001 m 170 0 l 0.001 0.001" stroke-width="18"></path>
  <path d="m  505 305 l 70 0 m 775 0 l 70 0" stroke-width="12"></path>
  <path d="m  715 285 s -10 15 -30 15 m 0 0 s -35 0 -35 -35 m 0 0 s 0 -35 35 -35 m 0 0 s 20 0 30 15" stroke-width="12"></path>
  <path d="m  740 265 l 70 0 s 0 -35 -35 -35 m 0 0 s -35 0 -35 35 m 0 0 s 0 35 35 35 m 0 0 s 15 0 30 -10" stroke-width="12"></path>
  <path d="m  835 333 l 0 -70 s 0 35 35 35 m 0 0 s 35 0 35 -35 m 0 0 s 0 -35 -35 -35 m 0 0 s -35 0 -35 35 m 0 0" stroke-width="12"></path>
  <path d="m  930 195 l 0 100 m 0 -30 s 0 -35 35 -35 m 0 0 s 35 0 35 35 m 0 0 l 0 30" stroke-width="12"></path>
  <path d="m 1025 333 l 0 -70 s 0 35 35 35 m 0 0 s 35 0 35 -35 m 0 0 s 0 -35 -35 -35 m 0 0 s -35 0 -35 35 m 0 0" stroke-width="12"></path>
  <path d="m 1185 300 m 0 -35 s 0 35 -35 35 m 0 0 s -35 0 -35 -35 m 0 0 s 0 -35 35 -35 m 0 0 s 35 0 35 35 m 0 0" stroke-width="12"></path> 
  <path d="m 1280 195 l 0 70 s 0 35 -35 35 m 0 0 s -35 0 -35 -35 m 0 0 s 0 -35 35 -35 m 0 0 s 35 0 35 35 m 0 0" stroke-width="12"></path>
</g>
<text x="500" y="700" font-size="350" fill="#FFF">&#x1F991;&#x1F4BB;</text>
</svg>