<svg xmlns="http://www.w3.org/2000/svg" style="position: fixed; top: 0; left: 0; width: 100%; height: 100%;">
<rect width="100%" height="100%" fill="#FAF"></rect>
<g id="cinemon" fill="none" stroke="#0FF" stroke-linejoin="round" stroke-linecap="round">  
  <path d="m  455 295 l 0.001 0.001 m 170 0 l 0.001 0.001 m 675 0 l 0.001 0.001 m 170 0 l 0.001 0.001" stroke-width="18"></path>
  <path d="m  505 305 l 70 0 m 775 0 l 70 0" stroke-width="12"></path>
  <path d="m  720 285 s -10 15 -30 15 m 0 0 s -35 0 -35 -35 m 0 0 s 0 -35 35 -35 m 0 0 s 20 0 30 15" stroke-width="12"></path>
  <path d="m  755 300 l 0 -50" stroke-width="12"></path><path d="m 755 220 l 0.001 0.001" stroke-width="18"></path>
  <path d="m  790 230 l 0  70 m 0 -35 s 0 -35 35 -35 m 0 0 s 35 0 35 35 m 0 0 l 0 35" stroke-width="12"></path>
  <path d="m  885 265 l 70 0 s 0 -35 -35 -35 m 0 0 s -35 0 -35 35 m 0 0 s 0 35 35 35 m 0 0 s 15 0 30 -10" stroke-width="12"></path>
  <path d="m  980 230 l 0 70 l 0 -45 s 0 -25 25 -25 m 0 0 s 25 0 25 25 m 0 45 l 0 -45 s 0 -25 25 -25 m 0 0 s 25 0 25 25 l 0 45" stroke-width="12"></path>
  <path d="m 1175 300 m 0 -35 s 0 35 -35 35 m 0 0 s -35 0 -35 -35 m 0 0 s 0 -35 35 -35 m 0 0 s 35 0 35 35 m 0 0" stroke-width="12"></path>
  <path d="m 1200 230 l 0  70 m 0 -35 s 0 -35 35 -35 m 0 0 s 35 0 35 35 m 0 0 l 0 35" stroke-width="12"></path>
</g>
<text x="500" y="700" font-size="350" fill="#FFF">&#x1F3A5;&#x1F3AC;</text>
</svg>