<svg xmlns="http://www.w3.org/2000/svg" style="position: fixed; top: 0; left: 0; width: 100%; height: 100%;">
<rect width="100%" height="100%" fill="#F90"></rect>
<g id="dinabon" fill="none" stroke="#000" stroke-linejoin="round" stroke-linecap="round">  
  <path d="m  455 295 l 0.001 0.001 m 170 0 l 0.001 0.001 m 675 0 l 0.001 0.001 m 170 0 l 0.001 0.001" stroke-width="18"></path>
  <path d="m  505 305 l 70 0 m 775 0 l 70 0" stroke-width="12"></path>
  <path d="m  715 195 l 0 70 s 0 35 -35 35 m 0 0 s -35 0 -35 -35 m 0 0 s 0 -35 35 -35 m 0 0 s 35 0 35 35 m 0 0" stroke-width="12"></path>
  <path d="m  755 300 l 0 -50" stroke-width="12"></path><path d="m 755 220 l 0.001 0.001" stroke-width="18"></path>
  <path d="m  795 230 l 0  70 m 0 -35 s 0 -35 35 -35 m 0 0 s 35 0 35 35 m 0 0 l 0 35" stroke-width="12"></path>
  <path d="m  970 300 l 0 -35 s 0 35 -35 35 m 0 0 s -35 0 -35 -35 m 0 0 s 0 -35 35 -35 m 0 0 s 35 0 35 35 m 0 0" stroke-width="12"></path>
  <path d="m 1005 195 l 0 70 s 0 35 35 35 m 0 0 s 35 0 35 -35 m 0 0 s 0 -35 -35 -35 m 0 0 s -35 0 -35 35 m 0 0" stroke-width="12"></path>
  <path d="m 1175 300 m 0 -35 s 0 35 -35 35 m 0 0 s -35 0 -35 -35 m 0 0 s 0 -35 35 -35 m 0 0 s 35 0 35 35 m 0 0" stroke-width="12"></path> 
  <path d="m 1205 230 l 0 70 m 0 -35 s 0 -35 35 -35 m 0 0 s 35 0 35 35 m 0 0 l 0 35" stroke-width="12"></path>
</g>
<text x="500" y="700" font-size="350" fill="#FFF">&#x1F356;&#x1F357;</text>
</svg>