<svg xmlns="http://www.w3.org/2000/svg" style="position: fixed; top: 0; left: 0; width: 100%; height: 100%;">
<rect width="100%" height="100%" fill="#FFB"></rect>
<g id="liskoplex" fill="none" stroke="#000" stroke-linejoin="round" stroke-linecap="round">  
  <path d="m  455 295 l 0.001 0.001 m 170 0 l 0.001 0.001 m 675 0 l 0.001 0.001 m 170 0 l 0.001 0.001" stroke-width="18"></path>
  <path d="m  505 305 l 70 0 m 775 0 l 70 0" stroke-width="12"></path>
  <path d="m  665 195 l 0 105" stroke-width="12"></path>
  <path d="m  705 300 l 0 -50" stroke-width="12"></path><path d="m 705 220 l 0.001 0.001" stroke-width="18"></path>
  <path d="m  740 285 s 0 15 30 15 m 0 0 s 20 0 20 -20 m 0 0 s 0 -15 -25 -15 m 0 0 s -25 0 -25 -15 m 0 0 s 0 -20 25 -20 m 0 0 s 20 0 25 10" stroke-width="12"></path>
  <path d="m  820 195 l 0 105 m 0 -20 l 50 -50 m -30 30 l 40 40" stroke-width="12"></path>
  <path d="m  965 300 m 0 -35 s 0 35 -35 35 m 0 0 s -35 0 -35 -35 m 0 0 s 0 -35 35 -35 m 0 0 s 35 0 35 35 m 0 0" stroke-width="12"></path>
  <path d="m  990 333 l 0 -70 s 0 35 35 35 m 0 0 s 35 0 35 -35 m 0 0 s 0 -35 -35 -35 m 0 0 s -35 0 -35 35 m 0 0" stroke-width="12"></path>
  <path d="m 1085 195 l 0 105" stroke-width="12"></path>
  <path d="m 1110 265 l 70 0 s 0 -35 -35 -35 m 0 0 s -35 0 -35 35 m 0 0 s 0 35 35 35 m 0 0 s 15 0 30 -10" stroke-width="12"></path>
  <path d="m 1200 235 l 64 64 m 0 -64 l -64 64" stroke-width="12"></path>
</g>  
<text x="520" y="700" font-size="350" fill="#FFF">&#x26F2;&#x1F6A0;</text>
</svg>