<svg xmlns="http://www.w3.org/2000/svg" style="position: fixed; top: 0; left: 0; width: 100%; height: 100%;">
<rect width="100%" height="100%" fill="#602"></rect>
<g id="mollabox" fill="none" stroke="#FFF" stroke-linejoin="round" stroke-linecap="round">  
  <path d="m  455 295 l 0.001 0.001 m 170 0 l 0.001 0.001 m 675 0 l 0.001 0.001 m 170 0 l 0.001 0.001" stroke-width="18"></path>
  <path d="m  505 305 l 70 0 m 775 0 l 70 0" stroke-width="12"></path>
  <path d="m  655 230 l 0 70 l 0 -45 s 0 -25 25 -25 m 0 0 s 25 0 25 25 m 0 45 l 0 -45 s 0 -25 25 -25 m 0 0 s 25 0 25 25 l 0 45" stroke-width="12"></path>
  <path d="m  850 300 m 0 -35 s 0 35 -35 35 m 0 0 s -35 0 -35 -35 m 0 0 s 0 -35 35 -35 m 0 0 s 35 0 35 35 m 0 0" stroke-width="12"></path>
  <path d="m  875 195 l 0 105" stroke-width="12"></path>
  <path d="m  910 195 l 0 105" stroke-width="12"></path>
  <path d="m 1000 300 l 0 -35 s 0 35 -35 35 m 0 0 s -35 0 -35 -35 m 0 0 s 0 -35 35 -35 m 0 0 s 35 0 35 35 m 0 0" stroke-width="12"></path>
  <path d="m 1025 195 l 0 70 s 0 35 35 35 m 0 0 s 35 0 35 -35 m 0 0 s 0 -35 -35 -35 m 0 0 s -35 0 -35 35 m 0 0" stroke-width="12"></path>
  <path d="m 1185 300 m 0 -35 s 0 35 -35 35 m 0 0 s -35 0 -35 -35 m 0 0 s 0 -35 35 -35 m 0 0 s 35 0 35 35 m 0 0" stroke-width="12"></path>
  <path d="m 1200 235 l 64 64 m 0 -64 l -64 64" stroke-width="12"></path>
</g>
<text x="520" y="700" font-size="350" fill="#FFF">&#x1F4FB;&#x1F4E6;</text>
</svg>