<svg xmlns="http://www.w3.org/2000/svg" style="position: fixed; top: 0; left: 0; width: 100%; height: 100%;">
<rect width="100%" height="100%" fill="#DB9"></rect>
<g id="pastelle" fill="none" stroke="#FFF" stroke-linejoin="round" stroke-linecap="round">  
  <path d="m  455 295 l 0.001 0.001 m 170 0 l 0.001 0.001 m 675 0 l 0.001 0.001 m 170 0 l 0.001 0.001" stroke-width="18"></path>
  <path d="m  505 305 l 70 0 m 775 0 l 70 0" stroke-width="12"></path>
  <path d="m  655 333 l 0 -70 s 0 35 35 35 m 0 0 s 35 0 35 -35 m 0 0 s 0 -35 -35 -35 m 0 0 s -35 0 -35 35 m 0 0" stroke-width="12"></path>
  <path d="m  820 300 l 0 -35 s 0 35 -35 35 m 0 0 s -35 0 -35 -35 m 0 0 s 0 -35 35 -35 m 0 0 s 35 0 35 35 m 0 0" stroke-width="12"></path>
  <path d="m  850 285 s 0 15 30 15 m 0 0 s 20 0 20 -20 m 0 0 s 0 -15 -25 -15 m 0 0 s -25 0 -25 -15 m 0 0 s 0 -20 25 -20 m 0 0 s 20 0 25 10" stroke-width="12"></path>
  <path d="m  945 195 l 0 70 s 0 35 35 35 m 0 -50 l -50 0" stroke-width="12"></path>
  <path d="m 1010 265 l 70 0 s 0 -35 -35 -35 m 0 0 s -35 0 -35 35 m 0 0 s 0 35 35 35 m 0 0 s 15 0 30 -10" stroke-width="12"></path>
  <path d="m 1120 195 l 0 105" stroke-width="12"></path>
  <path d="m 1160 195 l 0 105" stroke-width="12"></path>
  <path d="m 1200 265 l 70 0 s 0 -35 -35 -35 m 0 0 s -35 0 -35 35 m 0 0 s 0 35 35 35 m 0 0 s 15 0 30 -10" stroke-width="12"></path>  
</g>
<text x="500" y="700" font-size="350" fill="#FFF">&#x1F3EC;&#x1F5BC;&#xFE0F;</text>
</svg>