<svg xmlns="http://www.w3.org/2000/svg" style="position: fixed; top: 0; left: 0; width: 100%; height: 100%;">
<rect width="100%" height="100%" fill="#222"></rect>
<g id="pixelfire" fill="none" stroke="#FC3" stroke-linejoin="round" stroke-linecap="round">  
  <path d="m  455 295 l 0.001 0.001 m 170 0 l 0.001 0.001 m 675 0 l 0.001 0.001 m 170 0 l 0.001 0.001" stroke-width="18"></path>
  <path d="m  505 305 l 70 0 m 775 0 l 70 0" stroke-width="12"></path>
  <path d="m  655 333 l 0 -70 s 0 35 35 35 m 0 0 s 35 0 35 -35 m 0 0 s 0 -35 -35 -35 m 0 0 s -35 0 -35 35 m 0 0" stroke-width="12"></path>
  <path d="m  755 300 l 0 -50" stroke-width="12"></path><path d="m 755 220 l 0.001 0.001" stroke-width="18"></path>
  <path d="m  790 235 l 64 64 m 0 -64 l -64 64" stroke-width="12"></path>
  <path d="m  880 265 l 70 0 s 0 -35 -35 -35 m 0 0 s -35 0 -35 35 m 0 0 s 0 35 35 35 m 0 0 s 15 0 30 -10" stroke-width="12"></path>
  <path d="m  980 195 l 0 105" stroke-width="12"></path>
  <path d="m 1020 300 l 0 -95 s 0 -15 15 -15 m 0 0 s 15 0 15 15 m 0 50 l -45 0" stroke-width="12"></path>
  <path d="m 1080 300 l 0 -50" stroke-width="12"></path><path d="m 1080 220 l 0.001 0.001" stroke-width="18"></path>
  <path d="m 1111 230 l 0 70 m 0 -35 s 0 -35 35 -35 m 0 0 s 20 0 30 15" stroke-width="12"></path>
  <path d="m 1200 265 l 70 0 s 0 -35 -35 -35 m 0 0 s -35 0 -35 35 m 0 0 s 0 35 35 35 m 0 0 s 15 0 30 -10" stroke-width="12"></path>
</g>
<text x="500" y="700" font-size="350" fill="#FFF">&#x1F97D;&#x1F525;</text>
</svg>