<svg xmlns="http://www.w3.org/2000/svg" style="position: fixed; top: 0; left: 0; width: 100%; height: 100%;">
<rect width="100%" height="100%" fill="#F06"></rect>
<g id="sobaboii" fill="none" stroke="#FFF" stroke-linejoin="round" stroke-linecap="round">  
  <path d="m  455 295 l 0.001 0.001 m 170 0 l 0.001 0.001 m 675 0 l 0.001 0.001 m 170 0 l 0.001 0.001" stroke-width="18"></path>
  <path d="m  505 305 l 70 0 m 775 0 l 70 0" stroke-width="12"></path>
  <path d="m 660 285 s 0 15 30 15 m 0 0 s 20 0 20 -20 m 0 0 s 0 -15 -25 -15 m 0 0 s -25 0 -25 -15 m 0 0 s 0 -20 25 -20 m 0 0 s 20 0 25 10" stroke-width="12"></path>
  <path d="m 810 300 m 0 -35 s 0 35 -35 35 m 0 0 s -35 0 -35 -35 m 0 0 s 0 -35 35 -35 m 0 0 s 35 0 35 35 m 0 0" stroke-width="12"></path>
  <path d="m 835 195 l 0 70 s 0 35 35 35 m 0 0 s 35 0 35 -35 m 0 0 s 0 -35 -35 -35 m 0 0 s -35 0 -35 35 m 0 0" stroke-width="12"></path>
  <path d="m 1000 300 l 0 -35 s 0 35 -35 35 m 0 0 s -35 0 -35 -35 m 0 0 s 0 -35 35 -35 m 0 0 s 35 0 35 35 m 0 0" stroke-width="12"></path>
  <path d="m 1025 195 l 0 70 s 0 35 35 35 m 0 0 s 35 0 35 -35 m 0 0 s 0 -35 -35 -35 m 0 0 s -35 0 -35 35 m 0 0" stroke-width="12"></path>
  <path d="m 1190 300 m 0 -35 s 0 35 -35 35 m 0 0 s -35 0 -35 -35 m 0 0 s 0 -35 35 -35 m 0 0 s 35 0 35 35 m 0 0" stroke-width="12"></path>
  <path d="m 1225 300 l 0 -50" stroke-width="12"></path><path d="m 1225 220 l 0.001 0.001" stroke-width="18"></path>
  <path d="m 1265 300 l 0 -50" stroke-width="12"></path><path d="m 1265 220 l 0.001 0.001" stroke-width="18"></path>
</g>  
<text x="520" y="700" font-size="350" fill="#FFF">&#x2615;&#x1F964;</text>
</svg>