<svg xmlns="http://www.w3.org/2000/svg" style="position: fixed; top: 0; left: 0; width: 100%; height: 100%;">
<rect width="100%" height="100%" fill="#CFC"></rect>
<g id="tubkit" fill="none" stroke="#0AF" stroke-linejoin="round" stroke-linecap="round">  
  <path d="m  455 295 l 0.001 0.001 m 170 0 l 0.001 0.001 m 675 0 l 0.001 0.001 m 170 0 l 0.001 0.001" stroke-width="18"></path>
  <path d="m  505 305 l 70 0 m 775 0 l 70 0" stroke-width="12"></path>
  <path d="m  695 195 l 0 70 s 0 35 35 35 m 0 -50 l -50 0" stroke-width="12"></path>
  <path d="m  775 230 l 0 35 s 0 35 35 35 m 0 0 s 35 0 35 -35 m 0 0 l 0 -35 l 0 70" stroke-width="12"></path>
  <path d="m  895 195 l 0 70 s 0 35 35 35 m 0 0 s 35 0 35 -35 m 0 0 s 0 -35 -35 -35 m 0 0 s -35 0 -35 35 m 0 0" stroke-width="12"></path>
  <path d="m 1015 195 l 0 105 m 0 -20 l 50 -50 m -30 30 l 40 40" stroke-width="12"></path>
  <path d="m 1135 300 l 0 -25 l 0 -25" stroke-width="12"></path><path d="m 1135 220 l 0.001 0.001" stroke-width="18"></path>
  <path d="m 1205 195 l 0 70 s 0 35 35 35 m 0 -50 l -50 0" stroke-width="12"></path>
</g>
<text x="520" y="700" font-size="350" fill="#FFF">&#x1F9CA;&#x1F4F0;</text>
</svg>