<svg xmlns="http://www.w3.org/2000/svg" style="position: fixed; top: 0; left: 0; width: 100%; height: 100%;">
<rect width="100%" height="100%" fill="#0FF"></rect>
<g id="twittex" fill="none" stroke="#000" stroke-linejoin="round" stroke-linecap="round">  
  <path d="m  455 295 l 0.001 0.001 m 170 0 l 0.001 0.001 m 675 0 l 0.001 0.001 m 170 0 l 0.001 0.001" stroke-width="18"></path>
  <path d="m  505 305 l 70 0 m 775 0 l 70 0" stroke-width="12"></path>
  <path d="m  665 195 l 0 70 s 0 35 35 35 m 0 -50 l -50 0" stroke-width="12"></path>
  <path d="m  730 235 l 35 70 l 35 -70 l 35 70 l 35 -70" stroke-width="12"></path>
  <path d="m  905 300 l 0 -50" stroke-width="12"></path><path d="m 905 220 l 0.001 0.001" stroke-width="18"></path>
  <path d="m  950 195 l 0 70 s 0 35 35 35 m 0 -50 l -50 0" stroke-width="12"></path>
  <path d="m 1030 195 l 0 70 s 0 35 35 35 m 0 -50 l -50 0" stroke-width="12"></path>
  <path d="m 1100 265 l 70 0 s 0 -35 -35 -35 m 0 0 s -35 0 -35 35 m 0 0 s 0 35 35 35 m 0 0 s 15 0 30 -10" stroke-width="12"></path>
  <path d="m 1200 235 l 64 64 m 0 -64 l -64 64" stroke-width="12"></path>
</g>
<text x="520" y="700" font-size="350" fill="#FFF">&#x1F4FA;&#x1F986;</text>
</svg>